<?xml version="1.0" standalone="no"?>
<!DOCTYPE svg PUBLIC "-//W3C//DTD SVG 20010904//EN"
 "http://www.w3.org/TR/2001/REC-SVG-20010904/DTD/svg10.dtd">
<svg version="1.0" xmlns="http://www.w3.org/2000/svg"
 width="451.000000pt" height="512.000000pt" viewBox="0 0 451.000000 512.000000"
 preserveAspectRatio="xMidYMid meet">

<g transform="translate(0.000000,512.000000) scale(0.100000,-0.100000)"
fill="#000000" stroke="none">
<path d="M1560 4829 c-297 -7 -408 -16 -555 -45 -503 -100 -843 -440 -945
-943 -39 -197 -42 -259 -47 -1093 -6 -1032 3 -1238 67 -1478 107 -398 376
-687 760 -814 257 -85 527 -101 1595 -93 861 6 972 14 1205 89 296 95 523 283
665 551 59 110 89 194 119 329 45 204 48 269 53 1127 5 868 -2 1121 -37 1326
-48 279 -156 501 -329 675 -199 200 -438 306 -791 350 -200 25 -1123 35 -1760
19z m1595 -408 c378 -35 553 -106 706 -289 133 -159 181 -309 209 -656 13
-167 13 -1602 0 -1761 -31 -367 -91 -535 -246 -690 -64 -64 -155 -128 -232
-162 -74 -33 -237 -68 -387 -85 -172 -19 -1750 -19 -1917 0 -299 34 -445 89
-593 225 -153 139 -220 285 -261 567 -15 98 -18 234 -21 930 -5 830 0 1010 33
1210 49 297 191 494 445 615 125 59 315 92 604 104 250 11 1523 4 1660 -8z"/>
<path d="M3349 4047 c-118 -44 -191 -163 -176 -287 8 -65 36 -117 89 -167 53
-48 103 -67 178 -67 75 0 125 19 178 67 54 51 82 104 89 172 11 105 -41 207
-134 262 -55 32 -166 42 -224 20z"/>
<path d="M2052 3736 c-250 -48 -432 -144 -615 -324 -353 -349 -437 -899 -204
-1346 247 -475 807 -716 1324 -571 124 35 311 131 411 211 183 146 321 352
386 575 155 538 -100 1107 -608 1354 -164 80 -275 106 -466 111 -104 2 -179
-1 -228 -10z m374 -416 c265 -67 471 -269 541 -530 24 -90 24 -291 -1 -380
-73 -266 -274 -466 -536 -536 -99 -26 -273 -24 -375 5 -274 78 -483 300 -539
573 -82 398 171 785 569 873 93 21 248 18 341 -5z"/>
</g>
</svg>
