<?xml version="1.0" standalone="no"?>
<!DOCTYPE svg PUBLIC "-//W3C//DTD SVG 20010904//EN"
 "http://www.w3.org/TR/2001/REC-SVG-20010904/DTD/svg10.dtd">
<svg version="1.0" xmlns="http://www.w3.org/2000/svg"
 width="449.000000pt" height="512.000000pt" viewBox="0 0 449.000000 512.000000"
 preserveAspectRatio="xMidYMid meet">

<g transform="translate(0.000000,512.000000) scale(0.100000,-0.100000)"
fill="#000000" stroke="none">
<path d="M182 4810 c-71 -36 -115 -82 -151 -160 l-26 -55 0 -2000 0 -2000 34
-63 c37 -69 79 -109 151 -144 l45 -23 2000 0 2000 0 56 28 c66 32 132 99 162
165 l22 47 0 1995 0 1995 -28 57 c-35 71 -116 147 -183 171 -46 16 -167 17
-2035 17 l-1986 0 -61 -30z m963 -631 c231 -86 325 -364 193 -571 -40 -63 -89
-105 -168 -142 -57 -27 -75 -31 -150 -30 -101 1 -175 25 -248 84 -202 159
-182 479 38 620 28 18 69 38 93 45 66 21 177 18 242 -6z m2166 -1017 c127 -34
205 -78 290 -162 88 -87 126 -151 168 -275 64 -194 65 -207 69 -1002 l3 -723
-335 0 -336 0 0 593 c0 350 -4 626 -10 675 -20 159 -73 252 -168 299 -52 26
-66 28 -173 28 -113 0 -118 -1 -185 -35 -113 -58 -171 -157 -194 -330 -5 -41
-10 -335 -10 -652 l0 -578 -330 0 -330 0 0 1065 0 1065 315 0 314 0 3 -146 3
-147 33 51 c89 138 267 253 453 292 77 16 334 5 420 -18z m-1961 -1097 l0
-1065 -330 0 -330 0 0 1065 0 1065 330 0 330 0 0 -1065z"/>
</g>
</svg>
