<?xml version="1.0" standalone="no"?>
<!DOCTYPE svg PUBLIC "-//W3C//DTD SVG 20010904//EN"
 "http://www.w3.org/TR/2001/REC-SVG-20010904/DTD/svg10.dtd">
<svg version="1.0" xmlns="http://www.w3.org/2000/svg"
 width="484.000000pt" height="493.000000pt" viewBox="0 0 484.000000 493.000000"
 preserveAspectRatio="xMidYMid meet">

<g transform="translate(0.000000,493.000000) scale(0.100000,-0.100000)"
fill="#000000" stroke="none">
<path d="M1780 4853 c-679 -69 -1273 -482 -1576 -1096 -373 -754 -222 -1660
376 -2257 602 -603 1515 -749 2280 -365 114 57 267 154 341 216 26 22 50 39
53 39 3 0 6 -32 6 -70 0 -39 6 -85 14 -103 8 -18 265 -282 603 -619 l588 -588
50 0 49 0 138 138 138 138 0 54 0 54 -567 569 c-313 313 -586 583 -608 600
-35 29 -47 32 -123 37 l-85 5 48 58 c318 390 481 940 425 1432 -77 670 -479
1249 -1079 1554 -209 106 -401 165 -634 196 -106 13 -341 18 -437 8z m476
-472 c302 -62 568 -204 779 -416 181 -181 297 -368 374 -600 56 -169 74 -288
74 -475 0 -248 -44 -440 -153 -665 -219 -453 -657 -769 -1157 -836 -126 -17
-413 -6 -524 20 -195 45 -369 119 -534 228 -126 84 -307 263 -392 388 -499
738 -279 1727 485 2178 161 96 388 172 583 197 115 14 349 5 465 -19z"/>
</g>
</svg>
