<?xml version="1.0" standalone="no"?>
<!DOCTYPE svg PUBLIC "-//W3C//DTD SVG 20010904//EN"
 "http://www.w3.org/TR/2001/REC-SVG-20010904/DTD/svg10.dtd">
<svg version="1.0" xmlns="http://www.w3.org/2000/svg"
 width="506.000000pt" height="512.000000pt" viewBox="0 0 506.000000 512.000000"
 preserveAspectRatio="xMidYMid meet">

<g transform="translate(0.000000,512.000000) scale(0.100000,-0.100000)"
fill="#000000" stroke="none">
<path d="M3363 4656 c-405 -77 -724 -374 -830 -774 -23 -84 -26 -118 -26 -252
-1 -85 4 -175 11 -200 6 -24 10 -46 8 -47 -1 -1 -63 4 -137 12 -682 72 -1312
368 -1808 850 -64 62 -138 140 -166 173 -27 33 -53 58 -58 55 -19 -12 -80
-159 -103 -252 -89 -349 5 -720 246 -975 39 -41 96 -93 126 -117 30 -23 53
-43 51 -45 -2 -2 -48 3 -103 11 -114 17 -212 45 -301 85 l-63 29 0 -39 c0
-260 153 -583 361 -759 119 -100 267 -181 404 -219 75 -21 76 -20 -25 -41 -90
-19 -188 -23 -275 -12 -48 7 -89 11 -90 9 -7 -7 57 -153 96 -218 160 -271 456
-460 778 -500 46 -5 86 -12 88 -14 7 -6 -195 -138 -288 -189 -365 -199 -832
-292 -1203 -241 l-41 6 47 -31 c299 -194 724 -349 1108 -405 842 -123 1680 93
2305 595 141 113 360 335 464 469 424 546 659 1219 661 1895 l1 130 71 55 c91
70 257 235 331 326 41 51 57 80 57 101 l0 31 -67 -25 c-115 -42 -233 -73 -348
-93 -60 -10 -111 -18 -112 -17 -1 2 35 29 79 62 159 117 285 288 353 477 l14
37 -114 -58 c-140 -73 -291 -132 -434 -170 l-109 -29 -29 30 c-102 107 -303
221 -469 264 -122 32 -344 42 -461 20z"/>
</g>
</svg>
