<?xml version="1.0" standalone="no"?>
<!DOCTYPE svg PUBLIC "-//W3C//DTD SVG 20010904//EN"
 "http://www.w3.org/TR/2001/REC-SVG-20010904/DTD/svg10.dtd">
<svg version="1.0" xmlns="http://www.w3.org/2000/svg"
 width="498.000000pt" height="512.000000pt" viewBox="0 0 498.000000 512.000000"
 preserveAspectRatio="xMidYMid meet">

<g transform="translate(0.000000,512.000000) scale(0.100000,-0.100000)"
fill="#000000" stroke="none">
<path d="M2187 5065 c-726 -88 -1366 -481 -1772 -1090 -211 -316 -340 -665
-397 -1070 -17 -118 -16 -493 1 -615 48 -349 157 -667 329 -958 100 -169 205
-305 352 -456 213 -219 417 -369 675 -496 213 -105 412 -172 638 -213 l77 -15
0 864 0 864 -315 0 -315 0 0 360 0 360 315 0 315 0 0 323 c0 361 10 458 60
610 46 138 102 229 200 327 117 117 215 172 398 222 68 19 103 22 307 22 166
1 267 -4 365 -17 74 -10 141 -20 148 -22 9 -3 12 -74 12 -309 l0 -304 -222 -4
c-206 -4 -228 -6 -283 -27 -80 -32 -154 -106 -186 -186 -22 -57 -23 -73 -27
-347 l-4 -288 347 0 347 0 -6 -27 c-3 -16 -26 -165 -51 -333 -25 -168 -48
-317 -51 -333 l-6 -27 -289 0 -289 0 0 -864 0 -863 74 13 c361 63 730 226
1046 462 130 98 343 306 440 430 276 354 449 756 516 1197 25 165 25 521 1
690 -153 1044 -933 1877 -1952 2085 -240 49 -563 63 -798 35z"/>
</g>
</svg>
